<svg width="400" height="400" xmlns="http://www.w3.org/2000/svg">
 <g>
  <title>background</title>
  <rect fill="#fff" id="canvas_background" height="402" width="582" y="-1" x="-1"/>
  <g display="none" overflow="visible" y="0" x="0" height="100%" width="100%" id="canvasGrid">
   <rect fill="url(#gridpattern)" stroke-width="0" y="0" x="0" height="100%" width="100%"/>
  </g>
 </g>
 <g>
  <title>Layer 1</title>
  <path fill="#2a7aaf" id="svg_4" d="m90.04841,150.143859c-5.984,0 -11.578667,0.136889 -16.82489,0.371556c1.516445,4.472889 4.759111,8.133334 8.938667,10.209778c2.378667,1.182222 5.048889,1.863111 7.886223,1.863111s5.507556,-0.680889 7.886223,-1.863111c4.181334,-2.076445 7.424,-5.738667 8.938667,-10.209778c-5.246223,-0.234667 -10.84089,-0.371556 -16.82489,-0.371556z"/>
  <path fill="#2a7aaf" id="svg_5" d="m176.176415,148.764303l0.003556,0c-36.830224,-48.097781 -9.096889,-122.021341 -70.158226,-132.474675c-0.277333,-8.579556 -7.326223,-15.479112 -15.973334,-15.479112s-15.696001,6.899556 -15.973334,15.479112c-61.061337,10.453334 -33.328002,84.376894 -70.158226,132.474675l0.003556,0c-1.767111,1.987556 -2.760889,4.215111 -2.760889,6.712889c0,22.462224 79.790227,23.111112 88.888894,23.111112s88.888894,-0.648889 88.888894,-23.111112c0,-2.497778 -0.993778,-4.725334 -2.760889,-6.712889zm-86.128005,-140.842675c4.414222,0 8.058667,3.244445 8.744889,7.468445c-2.762667,-0.227556 -5.660445,-0.357333 -8.744889,-0.357333s-5.982223,0.129778 -8.744889,0.357333c0.686222,-4.224 4.330667,-7.468445 8.744889,-7.468445zm0,160.00001c-46.049781,0 -73.962671,-7.736889 -77.978671,-12.444445c4.016,-4.707556 31.930669,-12.444445 77.978671,-12.444445s73.962671,7.736889 77.978671,12.444445c-4.016,4.707556 -31.928891,12.444445 -77.978671,12.444445z"/>
  <g stroke="null" id="svg_23">
   <g stroke="null" transform="matrix(2.709972194159519,0,0,2.709972194159519,9.188082370916106,-57.41414762848727) " id="svg_12" display="none">
    <path stroke="null" id="svg_13" d="m171.784883,52.992904l-2,0c0,-3.309 -2.691,-6 -6,-6l-4,0c-3.309,0 -6,2.691 -6,6l-2,0c-3.309,0 -6,2.691 -6,6l0,14c0,3.308 2.691,6 6,6l20,0c3.309,0 6,-2.691 6,-5.999l0,-14.001c0,-3.308 -2.691,-6 -6,-6zm2,20.001c0,1.104 -0.895,2 -2,2l-20,0c-1.106,0 -2,-0.896 -2,-2l0,-14.001c0,-1.106 0.894,-2 2,-2l6,0l0,-4c0,-1.105 0.894,-2 2,-2l4,0c1.105,0 2,0.895 2,2l0,4l6,0c1.105,0 2,0.894 2,2l0,14.001zm-12,-14.001c-3.867,0 -7,3.135 -7,7c0,3.865 3.133,7 7,7s7,-3.135 7,-7c0,-3.865 -3.133,-7 -7,-7zm0,10.001c-1.654,0 -3,-1.346 -3,-3c0,-1.655 1.346,-3 3,-3s3,1.346 3,3c0,1.654 -1.346,3 -3,3z"/>
   </g>
   <g stroke="null" transform="matrix(3.9757570341317416,0,0,3.9757570341317416,62.91449419695269,-188.6469762419308) " id="svg_29" display="none">
    <path stroke="null" id="svg_30" d="m109.423938,42.832869l-2,0c0,-3.309 -2.691,-6 -6,-6l-4,0c-3.309,0 -6,2.691 -6,6l-2,0c-3.309,0 -6,2.691 -6,6l0,14c0,3.308 2.691,6 6,6l20,0c3.309,0 6,-2.691 6,-5.999l0,-14.001c0,-3.308 -2.691,-6 -6,-6zm2,20.001c0,1.104 -0.895,2 -2,2l-20,0c-1.106,0 -2,-0.896 -2,-2l0,-14.001c0,-1.106 0.894,-2 2,-2l6,0l0,-4c0,-1.105 0.894,-2 2,-2l4,0c1.105,0 2,0.895 2,2l0,4l6,0c1.105,0 2,0.894 2,2l0,14.001zm-12,-14.001c-3.867,0 -7,3.135 -7,7c0,3.865 3.133,7 7,7s7,-3.135 7,-7c0,-3.865 -3.133,-7 -7,-7zm0,10.001c-1.654,0 -3,-1.346 -3,-3c0,-1.655 1.346,-3 3,-3s3,1.346 3,3c0,1.654 -1.346,3 -3,3z"/>
   </g>
   <g stroke="null" transform="matrix(1.835203663472668,0,0,1.835203663472668,157.39542777585862,-42.12007283102409) " id="svg_31">
    <g stroke="null" id="svg_32"/>
   </g>
  </g>
 </g>
</svg>